<?xml version="1.0" encoding="utf-8"?>
<!-- Generator: Adobe Illustrator 24.0.0, SVG Export Plug-In . SVG Version: 6.00 Build 0)  -->
<svg version="1.1" xmlns="http://www.w3.org/2000/svg" xmlns:xlink="http://www.w3.org/1999/xlink" x="0px" y="0px"
	 viewBox="0 0 375 340.16" style="enable-background:new 0 0 375 340.16;" xml:space="preserve">
<style type="text/css">
	.st0{fill:url(#SVGID_1_);}
	.st1{fill:url(#SVGID_2_);}
	.st2{opacity:0.8;fill:url(#SVGID_3_);}
	.st3{opacity:0.8;fill:url(#SVGID_4_);}
	.st4{opacity:0.8;fill:url(#SVGID_5_);}
	.st5{opacity:0.8;fill:url(#SVGID_6_);}
	.st6{opacity:0.8;fill:url(#SVGID_7_);}
	.st7{opacity:0.8;fill:url(#SVGID_8_);}
	.st8{fill:#CBDFEF;}
	.st9{opacity:0.8;fill:url(#SVGID_9_);}
	.st10{fill:#FFFFFF;}
	.st11{fill:url(#SVGID_10_);}
	.st12{fill:#809297;}
	.st13{fill:url(#XMLID_2_);}
	.st14{fill:#8A9EA2;}
	.st15{fill:url(#XMLID_3_);}
	.st16{fill:#92A7AC;}
	.st17{fill:url(#XMLID_4_);}
	.st18{opacity:0.1;fill:#FFFFFF;}
	.st19{fill:#FDC870;}
	.st20{fill:url(#SVGID_11_);}
	.st21{fill:url(#XMLID_5_);}
	.st22{fill:url(#SVGID_12_);}
	.st23{fill:url(#SVGID_13_);}
	.st24{fill:url(#SVGID_14_);}
	.st25{opacity:0.7;fill:url(#SVGID_15_);}
	.st26{opacity:0.7;fill:url(#SVGID_16_);}
	.st27{fill:url(#SVGID_17_);}
	.st28{opacity:0.8;fill:url(#SVGID_18_);}
	.st29{fill:url(#SVGID_19_);}
	.st30{fill:#FFB300;}
	.st31{fill:#FFA000;}
	.st32{fill:#FFCA28;}
	.st33{opacity:0.7;fill:url(#SVGID_20_);}
	.st34{opacity:0.7;fill:url(#SVGID_21_);}
	.st35{fill:url(#SVGID_22_);}
	.st36{opacity:0.8;fill:url(#SVGID_23_);}
	.st37{fill:url(#SVGID_24_);}
	.st38{fill:#D32F2F;}
	.st39{opacity:0.8;fill:url(#SVGID_25_);}
	.st40{fill:#EF5350;}
	.st41{fill:none;stroke:#FFFFFF;stroke-width:1.0404;stroke-miterlimit:10;}
	.st42{opacity:0.7;fill:url(#SVGID_26_);}
	.st43{opacity:0.7;fill:url(#SVGID_27_);}
	.st44{fill:url(#SVGID_28_);}
	.st45{fill:#25284C;}
	.st46{fill:#111638;}
	.st47{fill:#F5F5F5;}
	.st48{fill:#7B92B9;}
	.st49{fill:#6A7EA2;}
	.st50{fill:none;stroke:#FFFFFF;stroke-width:0.7521;stroke-miterlimit:10;}
	.st51{opacity:0.8;fill:url(#SVGID_29_);}
	.st52{opacity:0.8;fill:url(#SVGID_30_);}
	.st53{opacity:0.8;fill:url(#SVGID_31_);}
	.st54{fill:url(#SVGID_32_);}
	.st55{fill:url(#SVGID_33_);}
	.st56{opacity:0.7;fill:url(#SVGID_34_);}
	.st57{fill:url(#SVGID_35_);}
	.st58{fill:none;stroke:#FFFFFF;stroke-width:1.0404;stroke-linecap:round;stroke-linejoin:round;stroke-miterlimit:10;}
	.st59{fill:#FFEE58;}
	.st60{fill:none;stroke:#FFFFFF;stroke-width:0.5202;stroke-linecap:round;stroke-linejoin:round;stroke-miterlimit:10;}
	.st61{fill:url(#SVGID_36_);}
</style>
<g id="Object">
	<g>
		<linearGradient id="SVGID_1_" gradientUnits="userSpaceOnUse" x1="186.9694" y1="318.4888" x2="186.9694" y2="8.9378">
			<stop  offset="1.860120e-03" style="stop-color:#AC24B9"/>
			<stop  offset="1" style="stop-color:#2E2142"/>
		</linearGradient>
		<path class="st0" d="M355,242.35c-0.49,2.83-1.06,5.64-1.71,8.44c-0.5,2.13-1.04,4.25-1.62,6.35c-3.22,11.6-7.8,23.19-14.13,33.44
			c-6.46,10.49-14.76,19.6-25.32,25.94c-5.68,3.42-11.77,5.89-18.1,7.74H78.52c-20.85-11.32-39.15-31.24-35.17-54.57
			c3.46-20.3,6.71-40.55-0.41-59.31c-5.18-13.61-15.37-24.8-21.11-38.19c-14.21-33.22,3.66-63.3,30.16-81.75
			c0.96-0.67,1.93-1.32,2.91-1.96c0.23-0.15,0.47-0.3,0.7-0.45c1.08-0.69,2.15-1.41,3.2-2.14c2.28-1.59,4.48-3.26,6.64-5.02h0.01
			c1.62-1.32,3.21-2.67,4.78-4.07c0.37-0.32,0.75-0.65,1.11-0.99c2.16-1.94,4.28-3.94,6.37-5.98c1.1-1.07,2.19-2.16,3.28-3.25
			c8.48-8.51,16.66-17.42,25.62-25.18c8.54-7.39,17.79-13.74,28.69-17.7c6.81-2.47,13.81-4.2,20.88-5.18
			c27.95-3.93,57.03,3.52,79.72,20.9c1.11,0.85,2.22,1.73,3.32,2.63c11.73,9.59,22.52,21.82,27.29,35.94
			c6.01,17.77,14.87,34.92,31.03,45.49c13.33,8.71,25.95,14.49,36.57,27.15c3.83,4.56,7.13,9.37,9.94,14.38
			c2.29,4.09,4.26,8.3,5.92,12.62c2.21,5.75,3.87,11.68,5.03,17.73C357.96,210.68,357.72,226.72,355,242.35z"/>
		<linearGradient id="SVGID_2_" gradientUnits="userSpaceOnUse" x1="33.9884" y1="315.4268" x2="17.0949" y2="208.9973">
			<stop  offset="1.860120e-03" style="stop-color:#AC24B9"/>
			<stop  offset="1" style="stop-color:#2E2142"/>
		</linearGradient>
		<path class="st1" d="M19.42,278.38c-0.33,5.89,0.02,12.09,2.97,17.2c2.48,4.29,8.29,7.58,12.31,4.68
			c3.05-2.2,3.27-6.72,2.25-10.34c-1.02-3.62-2.96-7.02-3.24-10.77c-0.44-5.9,6.55-21.03-3.94-21.71
			C20.32,256.83,19.75,272.55,19.42,278.38z"/>
		<g>
			<linearGradient id="SVGID_3_" gradientUnits="userSpaceOnUse" x1="97.6338" y1="317.6659" x2="100.8559" y2="273.4346">
				<stop  offset="0" style="stop-color:#FFFFFF;stop-opacity:0"/>
				<stop  offset="1" style="stop-color:#662D8D"/>
			</linearGradient>
			<ellipse class="st2" cx="98.97" cy="299.26" rx="20.34" ry="8.01"/>
			<linearGradient id="SVGID_4_" gradientUnits="userSpaceOnUse" x1="201.3889" y1="318.7223" x2="204.611" y2="274.4912">
				<stop  offset="0" style="stop-color:#FFFFFF;stop-opacity:0"/>
				<stop  offset="1" style="stop-color:#662D8D"/>
			</linearGradient>
			<ellipse class="st3" cx="202.73" cy="300.31" rx="20.34" ry="8.01"/>
			<linearGradient id="SVGID_5_" gradientUnits="userSpaceOnUse" x1="209.4487" y1="270.8376" x2="65.3304" y2="269.08">
				<stop  offset="0" style="stop-color:#FFFFFF;stop-opacity:0"/>
				<stop  offset="1" style="stop-color:#662D8D"/>
			</linearGradient>
			<polygon class="st4" points="85.48,263.98 103.87,263.98 144.74,283.02 139.4,295.07 158.54,295.07 200.12,269.28 149.22,251.47 
				118.96,244.65 			"/>
			<linearGradient id="SVGID_6_" gradientUnits="userSpaceOnUse" x1="167.7162" y1="126.4822" x2="89.7989" y2="213.7728">
				<stop  offset="0" style="stop-color:#FFFFFF;stop-opacity:0"/>
				<stop  offset="1" style="stop-color:#662D8D"/>
			</linearGradient>
			<rect x="89.26" y="124.86" class="st5" width="100.79" height="66.12"/>
			<linearGradient id="SVGID_7_" gradientUnits="userSpaceOnUse" x1="406.3819" y1="257.5246" x2="240.8487" y2="257.5246">
				<stop  offset="0" style="stop-color:#FFFFFF;stop-opacity:0"/>
				<stop  offset="1" style="stop-color:#662D8D"/>
			</linearGradient>
			<path class="st6" d="M355,224.46v17.89c-0.49,2.83-1.06,5.64-1.71,8.44c-0.5,2.13-1.04,4.25-1.62,6.35
				c-3.22,11.6-7.8,23.19-14.13,33.44h-52.68v-66.12H355z"/>
			<linearGradient id="SVGID_8_" gradientUnits="userSpaceOnUse" x1="382.1666" y1="207.9046" x2="205.7636" y2="207.9046">
				<stop  offset="0" style="stop-color:#FFFFFF;stop-opacity:0"/>
				<stop  offset="1" style="stop-color:#662D8D"/>
			</linearGradient>
			<path class="st7" d="M355,195.36v46.99c-0.49,2.83-1.06,5.64-1.71,8.44H206.31v-85.78h137.74c2.29,4.09,4.26,8.3,5.92,12.62
				C352.18,183.38,353.84,189.31,355,195.36z"/>
			<g>
				<path class="st8" d="M239.28,229.93v-47.2H133.76v47.2l0,0c0,7.8,5.15,15.59,15.45,21.54c20.6,11.9,54.01,11.9,74.61,0
					C234.13,245.52,239.28,237.73,239.28,229.93z"/>
				<linearGradient id="SVGID_9_" gradientUnits="userSpaceOnUse" x1="178.6506" y1="221.5583" x2="257.9696" y2="221.5583">
					<stop  offset="0" style="stop-color:#FFFFFF;stop-opacity:0"/>
					<stop  offset="1" style="stop-color:#662D8D"/>
				</linearGradient>
				<path class="st9" d="M239.28,229.93v-47.2H133.76v47.2l0,0c0,7.8,5.15,15.59,15.45,21.54c20.6,11.9,54.01,11.9,74.61,0
					C234.13,245.52,239.28,237.73,239.28,229.93z"/>
				<ellipse class="st10" cx="186.52" cy="182.73" rx="52.76" ry="30.46"/>
				<g>
					<linearGradient id="SVGID_10_" gradientUnits="userSpaceOnUse" x1="186.5212" y1="127.8786" x2="186.5212" y2="232.3234">
						<stop  offset="1.694780e-03" style="stop-color:#00D4C8"/>
						<stop  offset="1" style="stop-color:#00D2C7;stop-opacity:0"/>
					</linearGradient>
					<ellipse class="st11" cx="186.52" cy="176.81" rx="52.76" ry="30.46"/>
					<g>
						<path id="XMLID_914_" class="st12" d="M199.38,167.71c-0.18,5.5-6.27,9.76-13.58,9.52c-7.32-0.25-13.1-4.91-12.91-10.41
							c0.18-5.5,6.27-9.76,13.58-9.52C193.79,157.55,199.57,162.21,199.38,167.71z"/>
						<linearGradient id="XMLID_2_" gradientUnits="userSpaceOnUse" x1="172.884" y1="167.2655" x2="199.3884" y2="167.2655">
							<stop  offset="3.946110e-03" style="stop-color:#FFFFFF;stop-opacity:0"/>
							<stop  offset="1" style="stop-color:#92A7AC"/>
						</linearGradient>
						<path id="XMLID_913_" class="st13" d="M199.38,167.71c-0.18,5.5-6.27,9.76-13.58,9.52c-7.32-0.25-13.1-4.91-12.91-10.41
							c0.18-5.5,6.27-9.76,13.58-9.52C193.79,157.55,199.57,162.21,199.38,167.71z"/>
						<path id="XMLID_912_" class="st14" d="M208.17,155.85c-0.23,6.71-10.09,11.82-22.03,11.42c-11.94-0.4-21.44-6.16-21.21-12.87
							c0.23-6.71,10.09-11.82,22.03-11.42C198.89,143.38,208.39,149.14,208.17,155.85z"/>
						<linearGradient id="XMLID_3_" gradientUnits="userSpaceOnUse" x1="179.1303" y1="155.1217" x2="204.1923" y2="155.1217">
							<stop  offset="3.946110e-03" style="stop-color:#FFFFFF;stop-opacity:0"/>
							<stop  offset="1" style="stop-color:#92A7AC"/>
						</linearGradient>
						<path id="XMLID_907_" class="st15" d="M208.17,155.85c-0.23,6.71-10.09,11.82-22.03,11.42c-11.94-0.4-21.44-6.16-21.21-12.87
							c0.23-6.71,10.09-11.82,22.03-11.42C198.89,143.38,208.39,149.14,208.17,155.85z"/>
						
							<ellipse id="XMLID_906_" transform="matrix(0.0336 -0.9994 0.9994 0.0336 32.9927 329.3394)" class="st16" cx="186.8" cy="147.61" rx="12.15" ry="21.63"/>
						<linearGradient id="XMLID_4_" gradientUnits="userSpaceOnUse" x1="175.1686" y1="147.6092" x2="205.3251" y2="147.6092">
							<stop  offset="3.946110e-03" style="stop-color:#FFFFFF;stop-opacity:0"/>
							<stop  offset="1" style="stop-color:#92A7AC"/>
						</linearGradient>
						<path id="XMLID_905_" class="st17" d="M208.42,148.34c-0.23,6.71-10.09,11.82-22.03,11.42c-11.94-0.4-21.44-6.16-21.21-12.87
							c0.23-6.71,10.09-11.82,22.03-11.42C199.15,135.87,208.64,141.63,208.42,148.34z"/>
						<path id="XMLID_904_" class="st18" d="M168.43,150.37c-0.6,0.3-1.46-0.22-1.92-1.15c-0.46-0.93-0.36-1.93,0.24-2.22
							c0.6-0.3,1.46,0.22,1.92,1.15C169.14,149.08,169.03,150.07,168.43,150.37z"/>
						<path id="XMLID_897_" class="st18" d="M169.6,152.17c-0.39,0.2-0.85,0.08-1.02-0.26c-0.17-0.34,0.01-0.78,0.4-0.98
							c0.39-0.2,0.85-0.08,1.02,0.26C170.18,151.54,169.99,151.98,169.6,152.17z"/>
						<path id="XMLID_896_" class="st18" d="M168.5,158.46c-0.6,0.3-1.46-0.22-1.92-1.15c-0.46-0.93-0.36-1.93,0.24-2.22
							c0.6-0.3,1.46,0.22,1.92,1.15C169.21,157.17,169.1,158.16,168.5,158.46z"/>
						<path id="XMLID_895_" class="st18" d="M169.67,160.26c-0.39,0.2-0.85,0.08-1.02-0.26c-0.17-0.34,0.01-0.78,0.4-0.98
							c0.39-0.2,0.85-0.08,1.02,0.26C170.24,159.63,170.06,160.06,169.67,160.26z"/>
						<path id="XMLID_894_" class="st19" d="M225.87,96.92c0.14-21.8-17.39-36.3-39.12-36.43c-21.73-0.14-39.44,14.13-39.58,35.94
							c-0.14,21.36,10.78,24.59,16.35,35.57c1.74,3.44,1.1,6.49,1.1,6.49c-0.05,8.29,8.97,12.99,21.55,13.07
							c12.58,0.08,21.66-4.5,21.72-12.79c0,0-0.6-3.06,1.19-6.47C214.78,121.37,225.74,118.27,225.87,96.92z"/>
						<linearGradient id="SVGID_11_" gradientUnits="userSpaceOnUse" x1="177.4068" y1="91.7858" x2="211.5325" y2="132.168">
							<stop  offset="3.946110e-03" style="stop-color:#FFFFFF;stop-opacity:0"/>
							<stop  offset="1" style="stop-color:#FDC870"/>
						</linearGradient>
						<path class="st20" d="M225.88,96.92c-0.01,1.33-0.06,2.59-0.15,3.8c-0.07,0.91-0.16,1.8-0.28,2.64
							c-0.57,4.33-1.69,7.74-3.11,10.61c-0.03,0.06-0.06,0.11-0.08,0.17c-3.61,7.12-9.12,10.89-12.77,17.4
							c-0.15,0.24-0.28,0.5-0.41,0.75c-1.79,3.41-1.19,6.47-1.19,6.47c0,0.32-0.02,0.65-0.06,0.97c-0.01,0.15-0.02,0.29-0.05,0.43
							c0,0.07-0.02,0.15-0.03,0.22c-0.02,0.14-0.04,0.28-0.07,0.41c-0.02,0.14-0.05,0.28-0.09,0.41c-0.04,0.19-0.1,0.38-0.15,0.56
							c0,0.02-0.01,0.03-0.02,0.05c-0.16,0.52-0.37,1.02-0.62,1.5c-0.01,0.03-0.02,0.06-0.04,0.09c-2.15,4.1-7.21,6.74-13.96,7.72
							c-2.06,0.31-4.28,0.46-6.62,0.44c-12.58-0.08-21.61-4.77-21.56-13.07c0,0,0.64-3.05-1.11-6.49
							c-5.57-10.98-16.48-14.22-16.35-35.57c0.14-21.8,17.85-36.07,39.58-35.94C208.48,60.62,226.01,75.12,225.88,96.92z"/>
						
							<linearGradient id="XMLID_5_" gradientUnits="userSpaceOnUse" x1="219.4575" y1="111.7167" x2="219.4575" y2="131.4087" gradientTransform="matrix(0.9996 -0.0273 0.0273 0.9996 -36.5912 -18.9843)">
							<stop  offset="3.946110e-03" style="stop-color:#FFFFFF;stop-opacity:0"/>
							<stop  offset="1" style="stop-color:#FDC870"/>
						</linearGradient>
						<path id="XMLID_828_" class="st21" d="M198.98,115.78c-0.69-4.14-5.34-9.62-8.75-4.23c-2.36,3.73-2.11,8.95-2.11,13.31v0.27
							c-0.39,0.03-0.78,0.05-1.16,0.06c-0.12,0-0.22,0.02-0.31,0.05c-0.09-0.03-0.19-0.05-0.31-0.06c-0.38-0.01-0.76-0.03-1.15-0.07
							v-0.25c0.06-3.77,0.07-7.63-1.07-11.22c-1.79-5.67-7.03-5.42-9.1-0.09c-1.97,5.08-0.13,8.99,3.35,11.31
							c1.37,0.91,3,1.58,4.75,1.97c0,0.1-0.01,0.2-0.01,0.29c-0.02,2.81-0.03,5.62-0.05,8.43c-0.02,2.5-0.03,5-0.05,7.5
							c-0.01,1.13-0.01,2.25-0.02,3.37c-0.01,1.67-0.02,3.33-0.03,4.99c0.67,0.05,1.36,0.09,2.05,0.11
							c0.01-1.72,0.02-3.43,0.03-5.15c0.01-1.14,0.02-2.27,0.03-3.41c0.01-2.5,0.03-5.01,0.05-7.51c0.01-2.76,0.03-5.53,0.05-8.29
							c0.38,0.04,0.77,0.07,1.16,0.08c0.11,0,0.21-0.01,0.31-0.04c0.09,0.03,0.19,0.05,0.3,0.04c0.39,0,0.78-0.03,1.17-0.06
							c-0.02,2.77-0.04,5.55-0.05,8.32c-0.02,2.51-0.04,5.01-0.05,7.52c-0.01,1.12-0.02,2.23-0.02,3.35
							c-0.01,0.26-0.01,0.53-0.01,0.79c-0.01,1.45-0.02,2.89-0.03,4.35v0.01c0.01,0,0.01,0,0.02,0s0.01,0,0.02,0
							c0.02,0,0.03,0,0.05-0.01c0.01,0.01,0.02,0,0.03,0h0.14c0.23-0.01,0.45-0.02,0.67-0.03c0.2-0.01,0.39-0.02,0.58-0.03
							c0.19-0.01,0.37-0.03,0.55-0.04c0.01-1.66,0.02-3.33,0.03-4.99c0-0.49,0.01-0.98,0.01-1.47c0-0.58,0.01-1.17,0.01-1.75
							c0.02-2.51,0.03-5.02,0.05-7.53c0.01-2.83,0.03-5.67,0.05-8.5v-0.27C195.61,125.83,200.05,122.22,198.98,115.78z
							 M176.32,117.6c-0.02-2.27,2.3-9.07,5.14-5.07c2.19,3.09,1.89,8.12,1.72,12.28C179.51,124.04,176.36,121.96,176.32,117.6z
							 M190.13,124.86c-0.12-4.17-0.36-9.2,1.87-12.26c2.9-3.97,5.13,2.86,5.08,5.13C196.98,122.09,193.8,124.13,190.13,124.86z"/>
						
							<linearGradient id="SVGID_12_" gradientUnits="userSpaceOnUse" x1="232.5206" y1="127.7577" x2="202.3672" y2="77.1" gradientTransform="matrix(0.9996 -0.0273 0.0273 0.9996 -36.5912 -18.9843)">
							<stop  offset="3.946110e-03" style="stop-color:#FFFFFF;stop-opacity:0"/>
							<stop  offset="1" style="stop-color:#FFFFFF"/>
						</linearGradient>
						<path class="st22" d="M205.47,91.51c-10.6,6.51-28.05,6.99-38.98,1.06c-10.93-5.92-11.21-16-0.61-22.51
							c10.6-6.51,28.05-6.99,38.98-1.06C215.79,74.93,216.06,85,205.47,91.51z"/>
						<linearGradient id="SVGID_13_" gradientUnits="userSpaceOnUse" x1="165.702" y1="117.0812" x2="133.1144" y2="101.2998">
							<stop  offset="3.946110e-03" style="stop-color:#FFFFFF;stop-opacity:0"/>
							<stop  offset="1" style="stop-color:#FFFFFF"/>
						</linearGradient>
						<path class="st23" d="M152.62,107.86c1.84,5.33,5.27,10.23,8.91,14.34c3.8,4.31,8.37,8.58,9.15,14.27
							c0.11,0.79,0.15,1.62,0.54,2.32c0.39,0.7,1.27,1.21,2,0.88c0.37-0.17,0.63-0.52,0.84-0.87c1.55-2.5,2.1-5.6,1.49-8.48
							c-0.98-4.63-4.56-7.99-7.55-11.42c-2.91-3.33-5.39-7.6-6.32-11.96c-0.58-2.74-0.76-5.55-1.35-8.29
							c-0.28-1.31-0.67-2.62-1.46-3.7c-0.79-1.08-2.05-1.89-3.38-1.85c-1.42,0.05-2.68,1.06-3.36,2.31
							c-0.68,1.25-0.85,2.71-0.88,4.13C151.18,102.4,151.7,105.19,152.62,107.86z"/>
						<linearGradient id="SVGID_14_" gradientUnits="userSpaceOnUse" x1="181.7536" y1="151.3356" x2="209.5222" y2="136.3832">
							<stop  offset="3.946110e-03" style="stop-color:#FFFFFF;stop-opacity:0"/>
							<stop  offset="1" style="stop-color:#FDC870"/>
						</linearGradient>
						<path class="st24" d="M225.88,96.92c0,1.32-0.05,2.58-0.15,3.8c-0.07,0.91-0.16,1.8-0.28,2.64c-0.58,4.17-1.7,7.63-3.11,10.61
							c-0.03,0.06-0.06,0.11-0.08,0.17c-3.61,7.12-9.12,10.89-12.77,17.4c-0.15,0.24-0.28,0.5-0.41,0.75
							c-1.79,3.41-1.19,6.47-1.19,6.47c0,0.32-0.02,0.65-0.06,0.97c-0.01,0.15-0.02,0.29-0.05,0.43c0,0.07-0.02,0.15-0.03,0.22
							c-0.02,0.14-0.04,0.28-0.07,0.41c-0.02,0.14-0.05,0.28-0.09,0.41c-0.04,0.19-0.1,0.38-0.15,0.56c0,0.02-0.01,0.03-0.02,0.05
							c-0.16,0.52-0.37,1.02-0.62,1.5c-0.01,0.03-0.02,0.06-0.04,0.09c1.12,1.54,1.72,3.21,1.67,4.95
							c-0.05,1.31-0.46,2.56-1.19,3.72c0.64,1.2,0.98,2.48,0.93,3.79c-0.13,4.01-3.7,7.44-9.1,9.47c0.23,0.77,0.34,1.57,0.32,2.39
							c-0.19,5.5-6.27,9.76-13.58,9.52c-0.41-0.02-0.82-0.04-1.23-0.09c1.59-1.91,3.38-3.74,4.29-5.54
							c3.16-6.28,3.56-13.59,3.93-20.48c0.01-0.13,0.02-0.26,0.02-0.39c0.32-5.81,0.63-11.62,0.95-17.42
							c0.03-0.58,0.07-1.17,0.29-1.7c0.68-1.58,2.7-1.94,4.38-2.34C216.83,124.94,224.3,111.3,225.88,96.92z"/>
						<path class="st19" d="M224.24,55.12c0,1.94-1.57,3.52-3.51,3.52s-3.52-1.57-3.52-3.52c0-1.94,1.57-3.51,3.52-3.51
							S224.24,53.18,224.24,55.12z"/>
						<path class="st19" d="M224.24,152.27c0,1.94-1.57,3.52-3.51,3.52s-3.52-1.57-3.52-3.52s1.57-3.52,3.52-3.52
							S224.24,150.33,224.24,152.27z"/>
						<circle class="st19" cx="157.04" cy="137.08" r="3.52"/>
						<circle class="st19" cx="228.09" cy="44.73" r="2.22"/>
						<circle class="st19" cx="224.24" cy="132.39" r="2.22"/>
						<circle class="st19" cx="162.78" cy="43.44" r="2.22"/>
						<circle class="st19" cx="230.31" cy="159.78" r="2.22"/>
						<circle class="st19" cx="151.23" cy="171.15" r="2.22"/>
					</g>
					<g>
						<linearGradient id="SVGID_15_" gradientUnits="userSpaceOnUse" x1="100.9284" y1="125.3543" x2="194.4658" y2="125.3543">
							<stop  offset="1.694780e-03" style="stop-color:#00D4C8"/>
							<stop  offset="1" style="stop-color:#00D2C7;stop-opacity:0"/>
						</linearGradient>
						<path class="st25" d="M239.28,176.81V43.44c0,7.8-5.15,15.59-15.45,21.54c-20.6,11.9-54.01,11.89-74.61,0
							c-10.3-5.95-15.45-13.74-15.45-21.54v133.38l0,0c0,7.79,5.15,15.59,15.45,21.54c20.6,11.9,54.01,11.9,74.61,0
							C234.13,192.4,239.28,184.61,239.28,176.81z"/>
						<linearGradient id="SVGID_16_" gradientUnits="userSpaceOnUse" x1="260.8642" y1="125.3543" x2="195.2077" y2="125.3543">
							<stop  offset="1.694780e-03" style="stop-color:#00D4C8"/>
							<stop  offset="1" style="stop-color:#00D2C7;stop-opacity:0"/>
						</linearGradient>
						<path class="st26" d="M239.28,176.81V43.44c0,7.8-5.15,15.59-15.45,21.54c-20.6,11.9-54.01,11.89-74.61,0
							c-10.3-5.95-15.45-13.74-15.45-21.54v133.38l0,0c0,7.79,5.15,15.59,15.45,21.54c20.6,11.9,54.01,11.9,74.61,0
							C234.13,192.4,239.28,184.61,239.28,176.81z"/>
						<linearGradient id="SVGID_17_" gradientUnits="userSpaceOnUse" x1="186.5212" y1="-5.4989" x2="186.5212" y2="98.9459">
							<stop  offset="1.694780e-03" style="stop-color:#00D4C8"/>
							<stop  offset="1" style="stop-color:#00D2C7;stop-opacity:0"/>
						</linearGradient>
						<ellipse class="st27" cx="186.52" cy="43.44" rx="52.76" ry="30.46"/>
					</g>
				</g>
				<path class="st10" d="M141.66,128.58L141.66,128.58c-2.23-1.28-3.6-3.66-3.6-6.23v-48.5c0-1.07,1.15-1.73,2.08-1.2l0,0
					c2.28,1.32,3.69,3.75,3.69,6.39v48.29C143.83,128.44,142.63,129.14,141.66,128.58z"/>
				<path class="st10" d="M141.66,150.41L141.66,150.41c-2.23-1.28-3.6-3.66-3.6-6.23v-6.89c0-1.07,1.15-1.73,2.08-1.2l0,0
					c2.28,1.32,3.69,3.75,3.69,6.39v6.68C143.83,150.27,142.63,150.96,141.66,150.41z"/>
			</g>
			<g>
				<path class="st8" d="M320.96,270.11V238.2h-71.34v31.92l0,0c0,5.27,3.48,10.54,10.45,14.56c13.93,8.04,36.52,8.04,50.45,0
					C317.48,280.65,320.96,275.38,320.96,270.11z"/>
				<linearGradient id="SVGID_18_" gradientUnits="userSpaceOnUse" x1="279.9647" y1="264.452" x2="333.5954" y2="264.452">
					<stop  offset="0" style="stop-color:#FFFFFF;stop-opacity:0"/>
					<stop  offset="1" style="stop-color:#662D8D"/>
				</linearGradient>
				<path class="st28" d="M320.96,270.11V238.2h-71.34v31.92l0,0c0,5.27,3.48,10.54,10.45,14.56c13.93,8.04,36.52,8.04,50.45,0
					C317.48,280.65,320.96,275.38,320.96,270.11z"/>
				<ellipse class="st10" cx="285.29" cy="238.2" rx="35.67" ry="20.59"/>
				<g>
					<linearGradient id="SVGID_19_" gradientUnits="userSpaceOnUse" x1="285.2863" y1="201.1115" x2="285.2863" y2="271.7307">
						<stop  offset="1.694780e-03" style="stop-color:#00D4C8"/>
						<stop  offset="1" style="stop-color:#00D2C7;stop-opacity:0"/>
					</linearGradient>
					<ellipse class="st29" cx="285.29" cy="234.2" rx="35.67" ry="20.59"/>
					<g>
						<path class="st19" d="M310.89,176.81c0,1.31-1.06,2.38-2.38,2.38s-2.38-1.06-2.38-2.38c0-1.31,1.06-2.38,2.38-2.38
							S310.89,175.5,310.89,176.81z"/>
						<circle class="st19" cx="306.13" cy="227.99" r="2.38"/>
						<path class="st19" d="M267.73,209.71c0,1.31-1.06,2.38-2.38,2.38s-2.38-1.06-2.38-2.38c0-1.31,1.06-2.38,2.38-2.38
							S267.73,208.39,267.73,209.71z"/>
						<path class="st19" d="M305.26,166.76c0,0.83-0.67,1.5-1.5,1.5s-1.5-0.67-1.5-1.5s0.67-1.5,1.5-1.5
							S305.26,165.93,305.26,166.76z"/>
						<path class="st19" d="M298.57,234.2c0,0.83-0.67,1.5-1.5,1.5s-1.5-0.67-1.5-1.5c0-0.83,0.67-1.5,1.5-1.5
							S298.57,233.37,298.57,234.2z"/>
						<path class="st19" d="M266.59,164.61c0,0.83-0.67,1.5-1.5,1.5s-1.5-0.67-1.5-1.5s0.67-1.5,1.5-1.5
							S266.59,163.78,266.59,164.61z"/>
						<path class="st19" d="M316.39,208.64c0,0.83-0.67,1.5-1.5,1.5s-1.5-0.67-1.5-1.5c0-0.83,0.67-1.5,1.5-1.5
							S316.39,207.81,316.39,208.64z"/>
						<path class="st19" d="M262.93,230.37c0,0.83-0.67,1.5-1.5,1.5s-1.5-0.67-1.5-1.5s0.67-1.5,1.5-1.5
							S262.93,229.54,262.93,230.37z"/>
						<g>
							<path class="st30" d="M307.66,202.88c0,0.11,0,0.23-0.01,0.34c-0.01,1.41-0.14,2.71-0.37,3.91
								c-0.14,0.73-0.32,1.42-0.54,2.07c-0.91,2.77-2.47,4.85-4.49,6.13l0.01,0.01l-0.18,0.11c-0.11,0.05-0.22,0.12-0.34,0.19
								l-5.51,3.2l-1.24-2.14c-2.15-0.3-4.48-1.1-6.93-2.52c-10.83-6.24-19.59-21.45-19.59-33.94c0-1.27,0.1-2.45,0.28-3.55
								c0.11-0.7,0.26-1.38,0.43-2.01c0.15-0.52,0.32-1.02,0.5-1.5l-1.29-2.23l5.57-3.21c0.19-0.11,0.37-0.22,0.56-0.32l0.3-0.18
								l0.01,0.03c2.26-1.09,5.01-1.31,8.07-0.51c0.63,0.17,1.29,0.37,1.96,0.63c1.05,0.4,2.12,0.91,3.21,1.54
								c0.08,0.04,0.17,0.1,0.25,0.15c0.48,0.28,0.96,0.59,1.45,0.92c0.94,0.62,1.87,1.32,2.77,2.09c0.4,0.34,0.81,0.69,1.2,1.06
								c0.8,0.73,1.57,1.52,2.33,2.34c0.34,0.37,0.69,0.77,1.02,1.17c0.7,0.81,1.36,1.65,2.01,2.52c0.29,0.41,0.59,0.83,0.87,1.25
								c0.61,0.87,1.18,1.78,1.72,2.7c0.26,0.44,0.52,0.88,0.76,1.32c0.52,0.94,1.01,1.89,1.45,2.85c0.22,0.47,0.43,0.92,0.62,1.39
								c0.43,1.01,0.81,2.01,1.16,3.02c0.18,0.5,0.33,0.99,0.48,1.49c0.33,1.07,0.61,2.15,0.81,3.21c0.12,0.52,0.22,1.06,0.3,1.58
								c0.19,1.17,0.32,2.33,0.37,3.47C307.65,201.96,307.66,202.43,307.66,202.88z"/>
							<g>
								<path class="st31" d="M284.85,167.4l-16.1,9.3l-1.31,0.76l-0.4-1.53l2.14-1.24l13.72-7.92
									C283.53,166.93,284.19,167.13,284.85,167.4z"/>
								<path class="st31" d="M289.76,170.01l-19.52,11.27l-0.4-1.53l18.47-10.66C288.79,169.37,289.27,169.68,289.76,170.01z"/>
								<path class="st31" d="M293.72,173.17l-20.69,11.94l-0.39-1.53l19.88-11.47C292.92,172.45,293.34,172.8,293.72,173.17z"/>
								<path class="st31" d="M297.07,176.68l-21.23,12.25l-0.4-1.53l20.61-11.89C296.4,175.88,296.74,176.28,297.07,176.68z"/>
								<path class="st31" d="M299.95,180.45l-21.31,12.3l-0.39-1.53l20.83-12.03C299.37,179.61,299.67,180.03,299.95,180.45z"/>
								<path class="st31" d="M302.43,184.48l-20.98,12.11l-0.4-1.53l20.62-11.9C301.93,183.6,302.19,184.04,302.43,184.48z"/>
								<path class="st31" d="M304.5,188.72l-20.25,11.7l-0.4-1.53l20.03-11.56C304.1,187.8,304.3,188.25,304.5,188.72z"/>
								<path class="st31" d="M306.13,193.22l-19.09,11.02l-0.39-1.53l19-10.98C305.83,192.23,305.98,192.73,306.13,193.22z"/>
								<path class="st31" d="M307.25,198.02l-17.4,10.06l-0.4-1.53l17.49-10.11C307.07,196.96,307.17,197.5,307.25,198.02z"/>
								<path class="st31" d="M307.66,202.88c0,0.11,0,0.23-0.01,0.34l-15,8.66l-0.4-1.53l15.37-8.87
									C307.65,201.96,307.66,202.43,307.66,202.88z"/>
								<path class="st31" d="M307.28,207.14c-0.14,0.73-0.32,1.42-0.54,2.07l-11.3,6.52l-0.39-1.53L307.28,207.14z"/>
							</g>
							
								<ellipse transform="matrix(0.866 -0.5 0.5 0.866 -59.539 167.3496)" class="st32" cx="282.5" cy="194.77" rx="16" ry="27.71"/>
							<path class="st30" d="M286.09,179.16c-0.68,0.01-1.37,0.01-2.05,0c0.74,0.63,1.47,1.31,2.16,2.04l1.22-0.71
								C286.99,180.03,286.54,179.58,286.09,179.16z M268.75,176.69c-0.01,0.04-0.01,0.09-0.02,0.13c0.15,0.04,0.29,0.08,0.43,0.12
								c0.16-0.29,0.35-0.55,0.54-0.8L268.75,176.69z M286.09,179.16c-0.68,0.01-1.37,0.01-2.05,0c0.74,0.63,1.47,1.31,2.16,2.04
								l1.22-0.71C286.99,180.03,286.54,179.58,286.09,179.16z M268.73,176.82c0.15,0.04,0.29,0.08,0.43,0.12
								c0.16-0.29,0.35-0.55,0.54-0.8l-0.95,0.55C268.74,176.73,268.74,176.78,268.73,176.82z M298.47,203.09
								c-0.06-0.54-0.14-1.08-0.23-1.62c-0.19-1.08-0.44-2.16-0.75-3.26c-0.14-0.5-0.29-1-0.45-1.5c-0.33-1.01-0.71-2.03-1.13-3.03
								c-0.19-0.47-0.4-0.95-0.61-1.41c-0.44-0.97-0.92-1.93-1.43-2.86c-0.25-0.45-0.5-0.89-0.76-1.32
								c-0.54-0.92-1.12-1.82-1.73-2.69c-0.28-0.42-0.58-0.83-0.89-1.24c-0.64-0.88-1.32-1.72-2.02-2.52
								c-0.35-0.4-0.7-0.78-1.05-1.15c-0.43-0.46-0.88-0.91-1.33-1.33c-0.35-0.34-0.71-0.66-1.07-0.97
								c-0.41-0.37-0.82-0.71-1.24-1.04c-0.96-0.75-1.94-1.42-2.93-1.99c-0.02-0.02-0.04-0.03-0.06-0.04
								c-0.52-0.3-1.03-0.57-1.54-0.8c-1.44-0.68-2.84-1.13-4.14-1.3c-0.46-0.08-0.91-0.11-1.35-0.11c-0.7,0-1.33,0.08-1.91,0.23
								c-1.07,0.28-1.94,0.79-2.64,1.45l-0.17,0.17l-0.01,0.01c-0.5,0.51-0.91,1.1-1.24,1.74c-0.14,0.26-0.26,0.54-0.38,0.81v0.01
								c-0.89,2.17-1.05,4.62-1.05,6.13c0,10.71,7.5,24.16,16.65,30.18c0.4,0.28,0.81,0.53,1.22,0.77c2.51,1.45,4.94,2.22,7.03,2.22
								c0.74,0,1.42-0.09,2.02-0.26c0.8-0.22,1.49-0.58,2.07-1.04c0.3-0.22,0.57-0.47,0.81-0.75c0.46-0.5,0.83-1.07,1.14-1.68v-0.01
								c0.7-1.4,1.05-2.98,1.22-4.39c0.08-0.66,0.12-1.29,0.13-1.83c0.01-0.21,0.01-0.41,0.01-0.59
								C298.66,205.1,298.6,204.1,298.47,203.09z M296.99,209.38c-0.35,1.83-1.08,3.78-2.6,4.91c-0.8,0.59-1.83,0.96-3.13,0.96
								c-0.45,0-0.91-0.04-1.4-0.12h-0.01c-1.31-0.22-2.72-0.74-4.21-1.53h-0.02c-0.23-0.12-0.47-0.24-0.7-0.38
								c-9.32-5.38-17.19-19.01-17.19-29.76c0-1.3,0.13-3.41,0.84-5.28c0.16-0.43,0.36-0.85,0.59-1.24c0.16-0.29,0.35-0.55,0.54-0.8
								l0.01-0.01c0.73-0.89,1.72-1.55,3.07-1.77h0.01c0.3-0.04,0.62-0.07,0.97-0.07c1.21,0,2.57,0.3,4.01,0.88
								c0.55,0.22,1.11,0.49,1.68,0.79c0.22,0.11,0.43,0.23,0.65,0.36c0.81,0.47,1.6,0.99,2.38,1.58c0.43,0.32,0.86,0.66,1.28,1.02
								c0.1,0.07,0.18,0.14,0.27,0.24h0.01c0.74,0.63,1.47,1.31,2.16,2.04c0.37,0.37,0.72,0.75,1.06,1.14
								c0.71,0.79,1.39,1.63,2.05,2.5c0.3,0.4,0.6,0.82,0.89,1.24c0.61,0.87,1.19,1.77,1.73,2.69c0.26,0.43,0.52,0.87,0.76,1.32
								c0.51,0.94,0.99,1.9,1.42,2.87c0.22,0.46,0.42,0.93,0.61,1.4c0.42,1.01,0.79,2.03,1.1,3.05v0.01c0.17,0.51,0.31,1,0.45,1.5
								c0.29,1.1,0.53,2.2,0.69,3.28c0.09,0.55,0.16,1.1,0.21,1.64c0.07,0.76,0.11,1.51,0.11,2.24c0,0.4-0.01,0.88-0.05,1.41
								C297.19,208.08,297.11,208.72,296.99,209.38z M268.75,176.69c-0.01,0.04-0.01,0.09-0.02,0.13c0.15,0.04,0.29,0.08,0.43,0.12
								c0.16-0.29,0.35-0.55,0.54-0.8L268.75,176.69z M286.09,179.16c-0.68,0.01-1.37,0.01-2.05,0c0.74,0.63,1.47,1.31,2.16,2.04
								l1.22-0.71C286.99,180.03,286.54,179.58,286.09,179.16z"/>
							<g>
								<path class="st30" d="M287.97,198.26c-0.2-0.47-0.44-0.92-0.71-1.35c-0.57-0.91-1.29-1.74-2.08-2.48
									c-0.4-0.37-0.81-0.73-1.23-1.05c-0.31-0.25-0.62-0.48-0.93-0.7c-0.75-0.52-1.36-0.96-1.76-1.44
									c-0.32-0.38-0.5-0.78-0.5-1.26c0-0.08,0.01-0.16,0.03-0.22c0.07-0.27,0.29-0.37,0.59-0.34c0.33,0.02,0.78,0.2,1.23,0.46
									c0.16,0.09,0.32,0.19,0.48,0.3c0.9,0.57,1.72,1.29,2.46,2.28c0.09,0.11,0.17,0.22,0.25,0.34l1.51-1.36l0.02-0.02h0.01
									l0.37-0.33c-0.63-0.93-1.28-1.73-1.98-2.43c-0.38-0.38-0.78-0.73-1.19-1.06c-0.12-0.1-0.25-0.2-0.37-0.29v-2l-1.03-0.59
									l-1.53-0.88l-0.72-0.42v2.05c-0.53-0.19-1.04-0.31-1.5-0.35h-0.01c-1.08-0.08-1.92,0.3-2.28,1.32
									c-0.13,0.36-0.2,0.79-0.2,1.31c0,0.19,0.01,0.37,0.02,0.55c0.11,1.75,0.75,3.16,1.7,4.38l0.01,0.01
									c0.01,0.02,0.02,0.04,0.03,0.05c0.67,0.85,1.49,1.61,2.39,2.31c0.43,0.34,0.89,0.67,1.35,0.98
									c0.02,0.02,0.03,0.03,0.05,0.04c1.25,0.85,2,1.65,2.2,2.35c0.06,0.14,0.08,0.27,0.08,0.4c0,0.49-0.27,0.71-0.72,0.68
									c-0.37-0.01-0.85-0.19-1.42-0.52c-1.15-0.66-2.65-1.8-4-4.08l-2.12,1.58c1.42,2.58,2.78,4.06,4.42,5.23v2.12l3.28,1.89
									v-2.18c1.05,0.4,2.03,0.54,2.79,0.33c0.86-0.24,1.44-0.94,1.56-2.23v-0.01c0.02-0.17,0.03-0.35,0.03-0.54
									C288.55,200.09,288.34,199.14,287.97,198.26z"/>
							</g>
						</g>
					</g>
					<g>
						<linearGradient id="SVGID_20_" gradientUnits="userSpaceOnUse" x1="227.4138" y1="206.6842" x2="290.658" y2="206.6842">
							<stop  offset="1.694780e-03" style="stop-color:#00D4C8"/>
							<stop  offset="1" style="stop-color:#00D2C7;stop-opacity:0"/>
						</linearGradient>
						<path class="st33" d="M320.96,234.2v-75.62c0,5.27-3.48,10.54-10.45,14.56c-13.93,8.04-36.52,8.04-50.45,0
							c-6.97-4.02-10.45-9.29-10.45-14.56v75.62l0,0c0,5.27,3.48,10.54,10.45,14.56c13.93,8.04,36.52,8.04,50.45,0
							C317.48,244.74,320.96,239.47,320.96,234.2z"/>
						<linearGradient id="SVGID_21_" gradientUnits="userSpaceOnUse" x1="335.5525" y1="206.6842" x2="291.1596" y2="206.6842">
							<stop  offset="1.694780e-03" style="stop-color:#00D4C8"/>
							<stop  offset="1" style="stop-color:#00D2C7;stop-opacity:0"/>
						</linearGradient>
						<path class="st34" d="M320.96,234.2v-75.62c0,5.27-3.48,10.54-10.45,14.56c-13.93,8.04-36.52,8.04-50.45,0
							c-6.97-4.02-10.45-9.29-10.45-14.56v75.62l0,0c0,5.27,3.48,10.54,10.45,14.56c13.93,8.04,36.52,8.04,50.45,0
							C317.48,244.74,320.96,239.47,320.96,234.2z"/>
						<linearGradient id="SVGID_22_" gradientUnits="userSpaceOnUse" x1="285.2863" y1="125.4886" x2="285.2863" y2="196.1078">
							<stop  offset="1.694780e-03" style="stop-color:#00D4C8"/>
							<stop  offset="1" style="stop-color:#00D2C7;stop-opacity:0"/>
						</linearGradient>
						<ellipse class="st35" cx="285.29" cy="158.58" rx="35.67" ry="20.59"/>
					</g>
				</g>
				<path class="st10" d="M254.96,201.59L254.96,201.59c-1.5-0.87-2.43-2.47-2.43-4.21v-21.85c0-0.72,0.78-1.17,1.41-0.81l0,0
					c1.54,0.89,2.49,2.54,2.49,4.32v21.7C256.42,201.49,255.61,201.96,254.96,201.59z"/>
				<path class="st10" d="M254.96,216.34L254.96,216.34c-1.5-0.87-2.43-2.47-2.43-4.21v-4.66c0-0.72,0.78-1.17,1.41-0.81l0,0
					c1.54,0.89,2.49,2.54,2.49,4.32v4.51C256.42,216.25,255.61,216.72,254.96,216.34z"/>
			</g>
			<g>
				<path class="st8" d="M123.33,170.38v-31.92H51.98v31.92l0,0c0,5.27,3.48,10.54,10.45,14.56c13.93,8.04,36.52,8.04,50.45,0
					C119.84,180.92,123.33,175.65,123.33,170.38z"/>
				<linearGradient id="SVGID_23_" gradientUnits="userSpaceOnUse" x1="82.3335" y1="164.7203" x2="135.9641" y2="164.7203">
					<stop  offset="0" style="stop-color:#FFFFFF;stop-opacity:0"/>
					<stop  offset="1" style="stop-color:#662D8D"/>
				</linearGradient>
				<path class="st36" d="M123.33,170.38v-31.92H51.98v31.92l0,0c0,5.27,3.48,10.54,10.45,14.56c13.93,8.04,36.52,8.04,50.45,0
					C119.84,180.92,123.33,175.65,123.33,170.38z"/>
				<ellipse class="st10" cx="87.66" cy="138.47" rx="35.67" ry="20.59"/>
				<g>
					<linearGradient id="SVGID_24_" gradientUnits="userSpaceOnUse" x1="87.6551" y1="101.3798" x2="87.6551" y2="171.999">
						<stop  offset="1.694780e-03" style="stop-color:#00D4C8"/>
						<stop  offset="1" style="stop-color:#00D2C7;stop-opacity:0"/>
					</linearGradient>
					<ellipse class="st37" cx="87.66" cy="134.47" rx="35.67" ry="20.59"/>
					<g>
						<circle class="st38" cx="110.88" cy="77.08" r="2.38"/>
						<circle class="st38" cx="108.5" cy="128.26" r="2.38"/>
						<path class="st38" d="M70.1,109.98c0,1.31-1.06,2.38-2.38,2.38s-2.38-1.06-2.38-2.38s1.06-2.38,2.38-2.38
							S70.1,108.66,70.1,109.98z"/>
						<path class="st38" d="M107.63,67.03c0,0.83-0.67,1.5-1.5,1.5s-1.5-0.67-1.5-1.5s0.67-1.5,1.5-1.5S107.63,66.2,107.63,67.03z"
							/>
						<path class="st38" d="M100.94,134.47c0,0.83-0.67,1.5-1.5,1.5s-1.5-0.67-1.5-1.5s0.67-1.5,1.5-1.5
							S100.94,133.64,100.94,134.47z"/>
						<path class="st38" d="M68.96,64.88c0,0.83-0.67,1.5-1.5,1.5s-1.5-0.67-1.5-1.5c0-0.83,0.67-1.5,1.5-1.5
							S68.96,64.05,68.96,64.88z"/>
						<path class="st38" d="M118.76,108.9c0,0.83-0.67,1.5-1.5,1.5s-1.5-0.67-1.5-1.5s0.67-1.5,1.5-1.5S118.76,108.08,118.76,108.9z
							"/>
						<path class="st38" d="M65.29,130.64c0,0.83-0.67,1.5-1.5,1.5s-1.5-0.67-1.5-1.5s0.67-1.5,1.5-1.5S65.29,129.81,65.29,130.64z"
							/>
						<g>
							<path class="st38" d="M110.03,103.15c0,0.11,0,0.23-0.01,0.34c-0.01,1.41-0.14,2.71-0.37,3.91
								c-0.14,0.73-0.32,1.42-0.54,2.07c-0.91,2.77-2.47,4.85-4.49,6.13l0.01,0.01l-0.18,0.11c-0.11,0.05-0.22,0.12-0.34,0.19
								l-5.51,3.2l-1.24-2.14c-2.15-0.3-4.48-1.1-6.93-2.52c-10.83-6.24-19.59-21.45-19.59-33.94c0-1.27,0.1-2.45,0.28-3.55
								c0.11-0.7,0.26-1.38,0.43-2.01c0.15-0.52,0.32-1.02,0.5-1.5l-1.3-2.23l5.57-3.21c0.19-0.11,0.37-0.22,0.56-0.32l0.3-0.18
								l0.01,0.03c2.26-1.09,5.01-1.31,8.07-0.51c0.63,0.17,1.29,0.37,1.96,0.63c1.05,0.4,2.12,0.91,3.21,1.54
								c0.08,0.04,0.17,0.1,0.25,0.15c0.48,0.28,0.96,0.59,1.45,0.92c0.94,0.62,1.87,1.32,2.77,2.09c0.4,0.34,0.81,0.69,1.2,1.06
								c0.8,0.73,1.57,1.52,2.33,2.34c0.34,0.37,0.69,0.77,1.02,1.17c0.7,0.81,1.36,1.65,2.01,2.52c0.29,0.41,0.59,0.83,0.87,1.25
								c0.61,0.87,1.18,1.78,1.72,2.7c0.26,0.44,0.52,0.88,0.76,1.32c0.52,0.94,1.01,1.89,1.45,2.85c0.22,0.47,0.43,0.92,0.62,1.39
								c0.43,1.01,0.81,2.01,1.16,3.02c0.18,0.5,0.33,0.99,0.48,1.49c0.33,1.07,0.61,2.15,0.81,3.21c0.12,0.52,0.22,1.06,0.3,1.58
								c0.19,1.17,0.32,2.33,0.37,3.47C110.02,102.23,110.03,102.7,110.03,103.15z"/>
							<linearGradient id="SVGID_25_" gradientUnits="userSpaceOnUse" x1="85.1965" y1="81.7506" x2="106.0917" y2="121.9785">
								<stop  offset="0" style="stop-color:#FFFFFF;stop-opacity:0"/>
								<stop  offset="1" style="stop-color:#662D8D"/>
							</linearGradient>
							<path class="st39" d="M110.03,103.15c0,0.11,0,0.23-0.01,0.34c-0.01,1.41-0.14,2.71-0.37,3.91
								c-0.14,0.73-0.32,1.42-0.54,2.07c-0.91,2.77-2.47,4.85-4.49,6.13l0.01,0.01l-0.18,0.11c-0.11,0.05-0.22,0.12-0.34,0.19
								l-5.51,3.2l-1.24-2.14c-2.15-0.3-4.48-1.1-6.93-2.52c-10.83-6.24-19.59-21.45-19.59-33.94c0-1.27,0.1-2.45,0.28-3.55
								c0.11-0.7,0.26-1.38,0.43-2.01c0.15-0.52,0.32-1.02,0.5-1.5l-1.3-2.23l5.57-3.21c0.19-0.11,0.37-0.22,0.56-0.32l0.3-0.18
								l0.01,0.03c2.26-1.09,5.01-1.31,8.07-0.51c0.63,0.17,1.29,0.37,1.96,0.63c1.05,0.4,2.12,0.91,3.21,1.54
								c0.08,0.04,0.17,0.1,0.25,0.15c0.48,0.28,0.96,0.59,1.45,0.92c0.94,0.62,1.87,1.32,2.77,2.09c0.4,0.34,0.81,0.69,1.2,1.06
								c0.8,0.73,1.57,1.52,2.33,2.34c0.34,0.37,0.69,0.77,1.02,1.17c0.7,0.81,1.36,1.65,2.01,2.52c0.29,0.41,0.59,0.83,0.87,1.25
								c0.61,0.87,1.18,1.78,1.72,2.7c0.26,0.44,0.52,0.88,0.76,1.32c0.52,0.94,1.01,1.89,1.45,2.85c0.22,0.47,0.43,0.92,0.62,1.39
								c0.43,1.01,0.81,2.01,1.16,3.02c0.18,0.5,0.33,0.99,0.48,1.49c0.33,1.07,0.61,2.15,0.81,3.21c0.12,0.52,0.22,1.06,0.3,1.58
								c0.19,1.17,0.32,2.33,0.37,3.47C110.02,102.23,110.03,102.7,110.03,103.15z"/>
							
								<ellipse transform="matrix(0.866 -0.5 0.5 0.866 -36.1508 55.1709)" class="st40" cx="84.87" cy="95.04" rx="16" ry="27.71"/>
							
								<ellipse transform="matrix(0.866 -0.5 0.5 0.866 -36.1508 55.171)" class="st41" cx="84.87" cy="95.04" rx="12.62" ry="21.85"/>
							
								<ellipse transform="matrix(0.866 -0.5 0.5 0.866 -36.1508 55.1709)" class="st41" cx="84.87" cy="95.04" rx="8.8" ry="15.24"/>
							<path class="st41" d="M91.25,98.72c0,4.07-2.85,5.71-6.38,3.68c-3.52-2.03-6.38-6.98-6.38-11.04s2.85-5.71,6.38-3.68
								C88.4,89.71,91.25,94.66,91.25,98.72z"/>
							<path class="st10" d="M87.38,96.49c0,1.6-1.12,2.25-2.51,1.45c-1.39-0.8-2.51-2.74-2.51-4.34s1.12-2.25,2.51-1.45
								C86.26,92.95,87.38,94.89,87.38,96.49z"/>
						</g>
					</g>
					<g>
						<linearGradient id="SVGID_26_" gradientUnits="userSpaceOnUse" x1="29.7826" y1="106.9525" x2="93.0267" y2="106.9525">
							<stop  offset="1.694780e-03" style="stop-color:#00D4C8"/>
							<stop  offset="1" style="stop-color:#00D2C7;stop-opacity:0"/>
						</linearGradient>
						<path class="st42" d="M123.33,134.47V58.84c0,5.27-3.48,10.54-10.45,14.56c-13.93,8.04-36.52,8.04-50.45,0
							c-6.97-4.02-10.45-9.29-10.45-14.56v75.62l0,0c0,5.27,3.48,10.54,10.45,14.56c13.93,8.04,36.52,8.04,50.45,0
							C119.84,145.01,123.33,139.74,123.33,134.47z"/>
						<linearGradient id="SVGID_27_" gradientUnits="userSpaceOnUse" x1="137.9212" y1="106.9525" x2="93.5284" y2="106.9525">
							<stop  offset="1.694780e-03" style="stop-color:#00D4C8"/>
							<stop  offset="1" style="stop-color:#00D2C7;stop-opacity:0"/>
						</linearGradient>
						<path class="st43" d="M123.33,134.47V58.84c0,5.27-3.48,10.54-10.45,14.56c-13.93,8.04-36.52,8.04-50.45,0
							c-6.97-4.02-10.45-9.29-10.45-14.56v75.62l0,0c0,5.27,3.48,10.54,10.45,14.56c13.93,8.04,36.52,8.04,50.45,0
							C119.84,145.01,123.33,139.74,123.33,134.47z"/>
						<linearGradient id="SVGID_28_" gradientUnits="userSpaceOnUse" x1="87.6551" y1="25.7569" x2="87.6551" y2="96.3761">
							<stop  offset="1.694780e-03" style="stop-color:#00D4C8"/>
							<stop  offset="1" style="stop-color:#00D2C7;stop-opacity:0"/>
						</linearGradient>
						<ellipse class="st44" cx="87.66" cy="58.84" rx="35.67" ry="20.59"/>
					</g>
				</g>
				<path class="st10" d="M57.33,101.86L57.33,101.86c-1.5-0.87-2.43-2.47-2.43-4.21V75.8c0-0.72,0.78-1.17,1.41-0.81l0,0
					c1.54,0.89,2.49,2.54,2.49,4.32v21.7C58.79,101.76,57.98,102.23,57.33,101.86z"/>
				<path class="st10" d="M57.33,116.61L57.33,116.61c-1.5-0.87-2.43-2.47-2.43-4.21v-4.66c0-0.72,0.78-1.17,1.41-0.81l0,0
					c1.54,0.89,2.49,2.54,2.49,4.32v4.51C58.79,116.52,57.98,116.99,57.33,116.61z"/>
			</g>
			<g>
				<path class="st45" d="M196.47,224.75c0,0-5.89,6.26-6.27,12.49l1.15,2.45l2.37-1.73c0,0,1.68-8.18,4.74-10.63L196.47,224.75z"/>
				<path class="st46" d="M210.29,298.12c0,0,0.41,3.87-1.49,3.67c-2.21-0.23-9.05-4.84-7.53-6.29c1.52-1.45,7.23,1.18,7.23,1.18
					L210.29,298.12z"/>
				<path class="st46" d="M198.13,303.86c0,0,0.41,3.87-1.49,3.67c-2.21-0.23-9.05-4.84-7.53-6.29c1.52-1.45,7.23,1.18,7.23,1.18
					L198.13,303.86z"/>
				<rect x="199.86" y="207.26" class="st47" width="4.06" height="5.73"/>
				<path class="st45" d="M195.54,238.17c0,0-6.53,14.91-1.63,66.06c0.03,0.26,0.17,0.5,0.4,0.63c0.86,0.49,3.03,1.37,4.15-1.52
					c0.03-0.08,0.05-0.16,0.05-0.24l4.25-53.59c0.03-0.86,0.48-0.9,0.57-0.04l2.61,48.99c0.02,0.37,0.25,0.69,0.6,0.82
					c1.14,0.43,3.65,0.93,4.12-2.67c0,0,4.44-53-0.74-60.18L195.54,238.17z"/>
				<path class="st46" d="M209.92,234.79c-0.12,0.22-0.26,0.43-0.43,0.61c-1.49,1.52-5.49,4.27-13.47,1.41
					c-0.18-0.06-0.34-0.16-0.48-0.28v1.64c0.14,0.12,0.3,0.22,0.48,0.28c7.98,2.85,11.99,0.11,13.47-1.41
					c0.18-0.18,0.32-0.39,0.43-0.61V234.79z"/>
				<path class="st10" d="M226.15,186.18c0,0,0-3.47,0.48-3.54c0.33-0.05,0.32,1.1,0.32,1.1s0.39-2.58,0.95-2.43
					c0.2,0.05-0.05,1.63-0.05,1.63s0.24-0.91,1.68,0c0.45,0.28,0.34,1.13-1.37,3.82L226.15,186.18z"/>
				<path class="st48" d="M209.07,209.45c0,0,12.15-1.05,16.95-23.54c0,0,1.29-0.24,2.33,0.82c0,0-0.71,27.04-17.53,32.23
					L209.07,209.45z"/>
				<path class="st49" d="M199.86,211.05l4.06-0.92l6.4-0.83c1.57-0.21,2.7,2.06,2.81,4.49c0.21,4.62-2.88,20.32-2.88,20.32
					c-0.04,0.63-0.3,1.24-0.74,1.69c-1.48,1.52-5.48,4.29-13.49,1.42c-0.51-0.18-0.88-0.63-0.95-1.16l-2.98-18.57
					c-0.16-0.97,0.26-1.94,1.06-2.5L199.86,211.05z"/>
				<path class="st10" d="M194.81,200.05c0,0,0.49,5.55,2.78,8.39c2.29,2.84,6.73-1.85,7.39-3.22c0.66-1.37,1.73-9.94-5.15-9.94
					C195.37,195.28,194.58,198.05,194.81,200.05z"/>
				<path class="st45" d="M201.44,203.5c0,0-2.31-1.64-3.17-4.43c0,0-0.51-0.3-3.33,2.06c0,0-3.18-0.01-1.7-3.36
					s7.59-7.59,10.53-4.24c0,0,5.6-0.93,4.52,6.32c-1.43,9.55-5.9,7.98-7.02,5.8C200.17,203.5,201.44,203.5,201.44,203.5z"/>
				<path class="st10" d="M200,202.38c0,0,0.93-1.83,1.69-0.74c0.76,1.09-0.16,3.29-1.83,3.58L200,202.38z"/>
				<polygon class="st45" points="174.67,209.39 183.3,217.98 191.95,212.84 183.3,203.99 				"/>
				<polyline class="st50" points="182.56,213.98 182.56,212.06 184.38,212.06 184.38,208.01 				"/>
				<polyline class="st50" points="182.66,209.13 184.28,207.51 186.1,209.33 				"/>
				<path class="st10" d="M178.42,213.11c-0.03-0.05,0.68-0.78,1.21-1.33c0.16-0.16,0.42,0,0.36,0.21l-0.36,1.27
					c0,0,1.83-0.51,0.8,2.51l-1.78,0.48L178.42,213.11z"/>
				<path class="st48" d="M180.59,215.73c0,0,9.45,16.97,3.83,18.04c-5.62,1.06-5.89-17.48-5.89-17.48S179.08,215.51,180.59,215.73z
					"/>
				<path class="st48" d="M193.14,214.98c0,0-2.54,1.27-6.06,6.29c-4.79,6.82-6.99,10.89-2.54,12.39c1.13,0.38,8.9-7.77,8.9-7.77
					S196.59,219.14,193.14,214.98z"/>
				<path class="st48" d="M199.04,211.53l0.82-1.4c0,0,1.39-0.85,4.06-0.91l0.97,0.83C204.89,210.04,204.68,211,199.04,211.53z"/>
			</g>
			<g>
				<polygon class="st8" points="116.17,194.75 85.48,263.98 82.69,262.32 82.69,222.09 				"/>
				<polygon class="st8" points="118.96,196.4 118.96,244.65 85.48,263.98 85.48,223.75 				"/>
				<linearGradient id="SVGID_29_" gradientUnits="userSpaceOnUse" x1="85.8823" y1="197.5175" x2="123.7669" y2="273.2866">
					<stop  offset="0" style="stop-color:#FFFFFF;stop-opacity:0"/>
					<stop  offset="1" style="stop-color:#662D8D"/>
				</linearGradient>
				<polygon class="st51" points="118.96,196.4 118.96,244.65 85.48,263.98 85.48,223.75 				"/>
			</g>
			<g>
				<polygon class="st8" points="170.09,225.83 139.4,295.07 136.61,293.41 136.61,253.17 				"/>
				<polygon class="st8" points="172.88,227.49 172.88,275.73 139.4,295.07 139.4,254.83 				"/>
				<linearGradient id="SVGID_30_" gradientUnits="userSpaceOnUse" x1="111.6746" y1="261.2777" x2="214.6251" y2="261.2777">
					<stop  offset="0" style="stop-color:#FFFFFF;stop-opacity:0"/>
					<stop  offset="1" style="stop-color:#662D8D"/>
				</linearGradient>
				<polygon class="st52" points="172.88,227.49 172.88,275.73 139.4,295.07 139.4,254.83 				"/>
			</g>
			<polygon class="st8" points="139.4,257.53 82.69,224.78 172.88,227.49 172.88,230.18 			"/>
			<linearGradient id="SVGID_31_" gradientUnits="userSpaceOnUse" x1="111.6745" y1="241.1552" x2="214.6245" y2="241.1552">
				<stop  offset="0" style="stop-color:#FFFFFF;stop-opacity:0"/>
				<stop  offset="1" style="stop-color:#662D8D"/>
			</linearGradient>
			<polygon class="st53" points="139.4,257.53 82.69,224.78 172.88,227.49 172.88,230.18 			"/>
			<polygon class="st10" points="139.4,254.83 82.69,222.09 116.17,194.75 172.88,227.49 			"/>
			<polygon class="st45" points="138.63,250.33 89.29,221.82 116.94,199.24 166.29,227.75 			"/>
			<linearGradient id="SVGID_32_" gradientUnits="userSpaceOnUse" x1="123.8918" y1="201.6665" x2="121.244" y2="227.7668">
				<stop  offset="3.946110e-03" style="stop-color:#FFFFFF;stop-opacity:0"/>
				<stop  offset="1" style="stop-color:#FDC870"/>
			</linearGradient>
			<path class="st54" d="M126.16,225.36l-18.81-10.87c-0.43-0.25-0.48-0.86-0.09-1.18l9.91-8.09c0.53-0.43,1.27-0.49,1.86-0.15
				l18.55,10.72c0.56,0.32,0.62,1.11,0.12,1.51l-9.68,7.91C127.49,225.65,126.75,225.71,126.16,225.36z"/>
			<linearGradient id="SVGID_33_" gradientUnits="userSpaceOnUse" x1="114.9643" y1="217.6678" x2="108.3134" y2="230.2815">
				<stop  offset="0" style="stop-color:#BA68C8;stop-opacity:0"/>
				<stop  offset="1" style="stop-color:#BA68C8"/>
			</linearGradient>
			<path class="st55" d="M117.72,232.11l-18.81-10.87c-0.43-0.25-0.48-0.86-0.09-1.18l4.9-3.91c0.53-0.43,1.27-0.49,1.86-0.15
				l18.55,10.72c0.56,0.32,0.62,1.11,0.12,1.51l-4.67,3.72C119.06,232.39,118.31,232.45,117.72,232.11z"/>
			<g>
				<linearGradient id="SVGID_34_" gradientUnits="userSpaceOnUse" x1="130.5807" y1="227.4807" x2="124.3915" y2="239.2189">
					<stop  offset="1.694780e-03" style="stop-color:#00D4C8"/>
					<stop  offset="1" style="stop-color:#00D2C7;stop-opacity:0"/>
				</linearGradient>
				<path class="st56" d="M127.23,237.8l-6.13-3.51c-0.43-0.25-0.48-0.86-0.09-1.18l4.9-3.91c0.53-0.43,1.27-0.49,1.86-0.15
					l5.87,3.36c0.56,0.32,0.62,1.11,0.12,1.51l-4.67,3.72C128.57,238.08,127.82,238.14,127.23,237.8z"/>
				<linearGradient id="SVGID_35_" gradientUnits="userSpaceOnUse" x1="140.3461" y1="227.2409" x2="134.3607" y2="246.6937">
					<stop  offset="1.694780e-03" style="stop-color:#EF5350"/>
					<stop  offset="1" style="stop-color:#EF5350;stop-opacity:0"/>
				</linearGradient>
				<path class="st57" d="M136.83,243.23l-6.54-3.87c-0.43-0.25-0.48-0.86-0.09-1.18l4.9-3.91c0.53-0.43,1.27-0.49,1.86-0.15
					l6.28,3.72c0.56,0.32,0.62,1.11,0.12,1.51l-4.67,3.72C138.17,243.51,137.42,243.57,136.83,243.23z"/>
			</g>
			<polygon class="st8" points="139.4,257.53 139.4,254.83 82.69,222.09 82.69,224.78 			"/>
			<path class="st58" d="M111.04,213.91c0.05-0.1,9.13-0.73,9.13-0.73l1.76,3.17h10.94l-2.37-1.13"/>
			<line class="st58" x1="132.86" y1="216.35" x2="132.86" y2="218.23"/>
			<ellipse class="st40" cx="143.02" cy="220.11" rx="1.14" ry="0.66"/>
			<ellipse class="st59" cx="146.31" cy="221.99" rx="1.14" ry="0.66"/>
			<path class="st40" d="M150.41,224.34c-0.44,0.26-1.17,0.26-1.61,0c-0.44-0.26-0.44-0.67,0-0.93c0.45-0.26,1.17-0.26,1.61,0
				C150.86,223.66,150.86,224.08,150.41,224.34z"/>
			<path class="st40" d="M153.71,226.22c-0.45,0.26-1.17,0.26-1.61,0c-0.45-0.26-0.45-0.67,0-0.93c0.44-0.26,1.17-0.26,1.61,0
				C154.15,225.54,154.15,225.96,153.71,226.22z"/>
			<path class="st40" d="M157,228.1c-0.45,0.26-1.17,0.26-1.61,0c-0.45-0.26-0.45-0.67,0-0.93c0.45-0.26,1.17-0.26,1.61,0
				C157.45,227.42,157.45,227.84,157,228.1z"/>
			<path class="st40" d="M141.11,222.64c-0.45,0.26-1.17,0.26-1.61,0c-0.45-0.26-0.45-0.67,0-0.93c0.44-0.26,1.17-0.26,1.61,0
				C141.56,221.97,141.56,222.38,141.11,222.64z"/>
			<path class="st40" d="M144.41,224.52c-0.45,0.26-1.17,0.26-1.61,0c-0.45-0.26-0.45-0.67,0-0.93c0.45-0.26,1.17-0.26,1.61,0
				C144.85,223.85,144.85,224.26,144.41,224.52z"/>
			<path class="st40" d="M147.7,226.4c-0.45,0.26-1.17,0.26-1.61,0c-0.45-0.26-0.45-0.67,0-0.93c0.45-0.26,1.17-0.26,1.61,0
				C148.15,225.72,148.15,226.14,147.7,226.4z"/>
			<path class="st59" d="M151,228.28c-0.44,0.26-1.17,0.26-1.61,0c-0.44-0.26-0.44-0.67,0-0.93c0.45-0.26,1.17-0.26,1.61,0
				C151.44,227.6,151.44,228.02,151,228.28z"/>
			<path class="st59" d="M154.29,230.16c-0.44,0.26-1.17,0.26-1.61,0c-0.45-0.26-0.45-0.67,0-0.93c0.44-0.26,1.17-0.26,1.61,0
				C154.74,229.48,154.74,229.9,154.29,230.16z"/>
			<path class="st59" d="M138.4,224.7c-0.44,0.26-1.17,0.26-1.61,0c-0.44-0.26-0.44-0.67,0-0.93c0.45-0.26,1.17-0.26,1.61,0
				C138.85,224.03,138.85,224.44,138.4,224.7z"/>
			<path class="st40" d="M141.7,226.58c-0.44,0.26-1.17,0.26-1.61,0c-0.45-0.26-0.45-0.67,0-0.93c0.44-0.26,1.17-0.26,1.61,0
				C142.14,225.9,142.14,226.32,141.7,226.58z"/>
			<ellipse class="st59" cx="144.19" cy="227.99" rx="1.14" ry="0.66"/>
			<path class="st40" d="M148.29,230.34c-0.45,0.26-1.17,0.26-1.61,0c-0.45-0.26-0.45-0.67,0-0.93c0.45-0.26,1.17-0.26,1.61,0
				C148.73,229.66,148.73,230.08,148.29,230.34z"/>
			<path class="st40" d="M151.58,232.22c-0.45,0.26-1.17,0.26-1.61,0c-0.45-0.26-0.45-0.67,0-0.93c0.45-0.26,1.17-0.26,1.61,0
				C152.03,231.54,152.03,231.96,151.58,232.22z"/>
			<path class="st40" d="M135.69,226.76c-0.45,0.26-1.17,0.26-1.61,0c-0.45-0.26-0.45-0.67,0-0.93c0.45-0.26,1.17-0.26,1.61,0
				C136.14,226.09,136.14,226.5,135.69,226.76z"/>
			<path class="st40" d="M138.99,228.64c-0.45,0.26-1.17,0.26-1.61,0c-0.44-0.26-0.44-0.67,0-0.93c0.45-0.26,1.17-0.26,1.61,0
				C139.43,227.97,139.43,228.38,138.99,228.64z"/>
			<path class="st40" d="M142.28,230.52c-0.44,0.26-1.17,0.26-1.61,0c-0.45-0.26-0.45-0.67,0-0.93c0.45-0.26,1.17-0.26,1.61,0
				C142.73,229.84,142.73,230.26,142.28,230.52z"/>
			<path class="st40" d="M145.58,232.4c-0.45,0.26-1.17,0.26-1.61,0c-0.45-0.26-0.45-0.67,0-0.93c0.44-0.26,1.17-0.26,1.61,0
				C146.02,231.72,146.02,232.14,145.58,232.4z"/>
			<path class="st59" d="M148.87,234.28c-0.45,0.26-1.17,0.26-1.61,0c-0.44-0.26-0.44-0.67,0-0.93c0.45-0.26,1.17-0.26,1.61,0
				C149.32,233.6,149.32,234.02,148.87,234.28z"/>
			<ellipse class="st59" cx="132.17" cy="228.35" rx="1.14" ry="0.66"/>
			<ellipse class="st40" cx="135.47" cy="230.23" rx="1.14" ry="0.66"/>
			<path class="st59" d="M139.57,232.58c-0.45,0.26-1.17,0.26-1.61,0c-0.45-0.26-0.45-0.67,0-0.93c0.44-0.26,1.17-0.26,1.61,0
				C140.02,231.9,140.02,232.32,139.57,232.58z"/>
			<ellipse class="st40" cx="142.06" cy="233.99" rx="1.14" ry="0.66"/>
			<path class="st59" d="M146.16,236.34c-0.44,0.26-1.17,0.26-1.61,0c-0.45-0.26-0.45-0.67,0-0.93c0.45-0.26,1.17-0.26,1.61,0
				C146.61,235.66,146.61,236.08,146.16,236.34z"/>
			<g>
				<line class="st60" x1="104.45" y1="218" x2="121.15" y2="227.77"/>
				<line class="st60" x1="103.23" y1="218.97" x2="119.92" y2="228.74"/>
				<line class="st60" x1="102.01" y1="219.94" x2="118.7" y2="229.71"/>
			</g>
			<g>
				<path class="st45" d="M95.87,218.99c0,0,6.21,6.61,6.62,13.18l-1.21,2.59l-2.5-1.83c0,0-1.78-8.64-5-11.22L95.87,218.99z"/>
				<path class="st46" d="M81.29,296.43c0,0-0.43,4.09,1.57,3.88c2.33-0.25,9.55-5.11,7.94-6.64c-1.61-1.53-7.63,1.24-7.63,1.24
					L81.29,296.43z"/>
				<path class="st46" d="M94.12,302.48c0,0-0.43,4.09,1.57,3.88c2.33-0.25,9.55-5.11,7.94-6.64c-1.61-1.53-7.63,1.24-7.63,1.24
					L94.12,302.48z"/>
				
					<rect x="88.01" y="200.52" transform="matrix(-1 -1.224647e-16 1.224647e-16 -1 180.2981 407.0996)" class="st10" width="4.28" height="6.05"/>
				<path class="st45" d="M96.85,233.15c0,0,6.89,15.73,1.72,69.73c-0.03,0.28-0.18,0.53-0.42,0.67c-0.91,0.52-3.19,1.45-4.38-1.6
					c-0.03-0.08-0.05-0.17-0.06-0.26l-4.49-56.56c-0.04-0.91-0.51-0.95-0.6-0.04l-2.76,51.71c-0.02,0.39-0.27,0.73-0.63,0.87
					c-1.21,0.45-3.85,0.98-4.34-2.82c0,0-4.68-55.94,0.79-63.52L96.85,233.15z"/>
				<path class="st46" d="M81.67,229.59c0.12,0.23,0.27,0.45,0.46,0.64c1.57,1.61,5.8,4.5,14.22,1.49c0.19-0.07,0.36-0.17,0.5-0.3
					v1.73c-0.15,0.13-0.31,0.23-0.5,0.3c-8.42,3.01-12.65,0.12-14.22-1.49c-0.19-0.19-0.33-0.41-0.46-0.64V229.59z"/>
				<path class="st49" d="M92.29,204.52l-4.28-0.97l-6.76-0.88c-1.65-0.22-2.84,2.18-2.96,4.74c-0.23,4.87,3.04,21.45,3.04,21.45
					c0.04,0.67,0.32,1.31,0.79,1.79c1.56,1.6,5.79,4.52,14.23,1.5c0.53-0.19,0.92-0.66,1.01-1.22l3.15-19.6
					c0.16-1.02-0.27-2.05-1.12-2.64L92.29,204.52z"/>
				<path class="st10" d="M97.62,192.92c0,0-0.52,5.85-2.94,8.85c-2.42,3-7.11-1.95-7.8-3.4c-0.7-1.44-1.83-10.49,5.44-10.49
					C97.03,187.88,97.86,190.81,97.62,192.92z"/>
				<path class="st45" d="M90.62,196.56c0,0,2.44-1.73,3.35-4.67c0,0,0.54-0.32,3.51,2.17c0,0,3.36-0.01,1.8-3.55
					c-1.56-3.54-8.01-8.01-11.11-4.48c0,0-5.91-0.98-4.77,6.67c1.51,10.08,6.23,8.42,7.41,6.12
					C91.97,196.56,90.62,196.56,90.62,196.56z"/>
				<path class="st10" d="M92.14,195.38c0,0-0.98-1.93-1.79-0.78s0.17,3.47,1.93,3.77L92.14,195.38z"/>
				<path class="st10" d="M127.56,229.84c0.06-0.02,0.64,0.88,1.07,1.56c0.12,0.2-0.1,0.43-0.3,0.32l-1.22-0.68
					c0,0,0.08,2.01-2.78,0.22l-0.07-1.95L127.56,229.84z"/>
				<path class="st48" d="M124.87,229.25c0,0-17.82-10.13-19-4.21c-1.18,5.92,18.39,6.38,18.39,6.38S125.09,230.85,124.87,229.25z"
					/>
				<path class="st48" d="M99.39,208.68c0,0,2.68,1.34,6.4,6.64c5.05,7.2,7.38,11.49,2.68,13.08c-1.19,0.4-9.39-8.2-9.39-8.2
					S95.74,213.07,99.39,208.68z"/>
				<path class="st48" d="M93.16,205.03l-0.87-1.48c0,0-1.47-0.9-4.28-0.96l-1.02,0.87C86.98,203.46,87.2,204.48,93.16,205.03z"/>
			</g>
		</g>
		
			<linearGradient id="SVGID_36_" gradientUnits="userSpaceOnUse" x1="983.3539" y1="341.0475" x2="983.3539" y2="250.3453" gradientTransform="matrix(-0.999 -0.0439 0.0439 -0.999 1270.5823 459.5627)">
			<stop  offset="1.860120e-03" style="stop-color:#AC24B9"/>
			<stop  offset="1" style="stop-color:#2E2142"/>
		</linearGradient>
		<path class="st61" d="M286,96.53c3.53,9.57,16.66,21.85,27.45,17.25c5.34-2.27,8.24-9.75,4.67-14.32
			c-2.54-3.25-7.1-4.05-10.38-6.55c-2.93-2.23-4.65-5.65-6.88-8.59c-2.22-2.94-5.51-5.63-9.17-5.22
			c-7.67,0.86-7.69,11.44-5.88,16.87C285.87,96.15,285.93,96.34,286,96.53z"/>
	</g>
</g>
<g id="Designed_by_Freepik">
</g>
</svg>
